<svg viewBox="-1.6 -1.6 19.20 19.20" xmlns="http://www.w3.org/2000/svg" fill="#000000" stroke="#000000"><g id="SVGRepo_bgCarrier" stroke-width="0"><path transform="translate(-1.6, -1.6), scale(0.6)" d="M16,25.638569868881913C19.20366393450867,26.383024215362664,22.42788856147598,28.57745975251227,25.434068906142755,27.24308551167696C28.722681817232154,25.78334595732147,31.385945999632007,22.33498008210732,31.54096803790629,18.740291971410773C31.691263773369183,15.255198501016803,27.902283456584602,13.156149472688524,26.17220210192602,10.127076378201739C24.42794760126172,7.073188557451049,24.693118660415955,2.3901943010313262,21.4396616773232,1.0546523720818612C18.186838866205104,-0.28062922969355,14.596469886512054,2.1925051738032826,11.700171135047068,4.186317286022614C9.406379849677652,5.765363247824521,8.652087396329566,8.54548120377154,7.150952485036635,10.891000035164106C5.533886493590804,13.417660834275022,2.0519420093790393,15.413907935992157,2.630678819226155,18.357372037927576C3.2102868743981716,21.305267306663154,7.00623638008912,22.13707094739723,9.644654486802253,23.574005847530906C11.661606474031363,24.672477956621307,13.762925919759292,25.11872772673474,16,25.638569868881913" fill="#874efe" strokewidth="0"></path></g><g id="SVGRepo_tracerCarrier" stroke-linecap="round" stroke-linejoin="round"></g><g id="SVGRepo_iconCarrier"> <path d="m 8 1 c -1.65625 0 -3 1.34375 -3 3 s 1.34375 3 3 3 s 3 -1.34375 3 -3 s -1.34375 -3 -3 -3 z m -1.5 7 c -2.492188 0 -4.5 2.007812 -4.5 4.5 v 0.5 c 0 1.109375 0.890625 2 2 2 h 8 c 1.109375 0 2 -0.890625 2 -2 v -0.5 c 0 -2.492188 -2.007812 -4.5 -4.5 -4.5 z m 0 0" fill="#ffffff"></path> </g></svg>