<svg fill="#ffffff" viewBox="-1.6 -1.6 19.20 19.20" xmlns="http://www.w3.org/2000/svg"><g id="SVGRepo_bgCarrier" stroke-width="0"><path transform="translate(-1.6, -1.6), scale(0.6)" d="M16,25.645262090391235C17.894770260700593,25.066570034256404,19.540954583891835,24.20590210088662,21.300726212695178,23.295823724521277C23.460537304127623,22.178862103379945,26.71497142960283,22.038142164847443,27.454136055878003,19.721674407886262C28.194064847061295,17.402811834793816,24.922433765988217,15.633608072829393,24.511192023247197,13.234546073226586C23.975283345289167,10.108214256866805,27.150826375931736,6.029315532771417,24.75140208738068,3.954728388155548C22.43551569039223,1.9523696679792595,18.994017956376656,5.236370988097211,16,5.875610164709782C13.816413538897795,6.341817793319519,11.67649595616879,6.3715536599176,9.599043787085515,7.189839594816869C6.809875600393978,8.288462769494009,2.957089910459024,8.612724590707543,1.915046201964607,11.423521090487817C0.8798679941896961,14.215798669003734,4.001926539984589,16.76865261852579,5.008906252841786,19.57122284159404C5.97074234629881,22.248151840835174,5.18637193307239,26.081192716457018,7.675979359306014,27.457031515480075C10.22369299742357,28.864981714851545,13.216075178471913,26.495515660710204,16,25.645262090391235" fill="#874efe" strokewidth="0"></path></g><g id="SVGRepo_tracerCarrier" stroke-linecap="round" stroke-linejoin="round"></g><g id="SVGRepo_iconCarrier"><path d="M14.25 10.71 11.57 8l2.26-2.26a2.49 2.49 0 0 0 0-3.53 2.5 2.5 0 0 0-3.53 0l-.89.88L8 4.5 5.28 1.75a1.26 1.26 0 0 0-1.76 0L1.75 3.52a1.25 1.25 0 0 0 0 1.77L4.5 8l-.22.22-.89.88-1.75 3.66a1.25 1.25 0 0 0 1.67 1.67l3.62-1.75.49-.49.39-.39.19-.23 2.68 2.68a1.26 1.26 0 0 0 1.76 0l1.77-1.77a1.25 1.25 0 0 0 .04-1.77zm-2.19-8a1.27 1.27 0 0 1 .89.36 1.25 1.25 0 0 1 0 1.77l-1.77-1.72a1.27 1.27 0 0 1 .88-.36zM2.63 4.4 4.4 2.64l.82.82-.87.88.88.88.88-.88 1 1-1.73 1.81zm.13 8.91 1.57-3.23L6 11.74zm4.17-2.4L5.16 9.14 10.3 4l1.76 1.76zm4.67 2.45-2.68-2.67 1.77-1.77.93.93-.88.88.88.89.89-.89.86.87z"></path></g></svg>